<?xml version="1.0" encoding="UTF-8"?>
<svg width="252px" height="335px" viewBox="0 0 252 335" version="1.1" xmlns="http://www.w3.org/2000/svg" xmlns:xlink="http://www.w3.org/1999/xlink">
    <!-- Generator: Sketch 59 (86127) - https://sketch.com -->
    <title>logo@1</title>
    <desc>Created with Sketch.</desc>
    <g id="页面-1" stroke="none" stroke-width="1" fill="none" fill-rule="evenodd">
        <g id="Notes-web首页" transform="translate(-827.000000, -298.000000)" fill-rule="nonzero">
            <g id="编组-3" transform="translate(827.000000, 298.000000)">
                <g id="资源-1111">
                    <g id="编组-2" transform="translate(18.000000, 0.000000)">
                        <ellipse id="椭圆形" fill="#1A1A1A" cx="108.5" cy="108.5" rx="108.5" ry="107.857988"></ellipse>
                        <path d="M175.370039,159.787646 C174.530808,158.886823 172.892311,158.286274 172.113025,159.227134 C155.588177,179.585746 135.606499,171.578426 146.136843,142.551889 C155.288452,117.348848 167.317423,95.5088815 162.122186,69.7653463 C159.604495,57.4140545 147.715396,43.1610241 125.335916,41.7397247 C116.801228,41.5615845 108.4222,44.0449234 101.357902,48.8462216 C100.460577,49.4497142 99.2928278,49.4678029 98.377309,48.8923917 C97.4617901,48.3169805 96.9698957,47.2557917 97.1217857,46.1837876 L97.1217857,46.1837876 C97.2318195,45.3966288 96.995558,44.6003629 96.4741961,44.0012341 C95.9528342,43.4021053 95.1976612,43.059053 94.4042774,43.0609326 L64.8313931,43.0609326 C63.4637491,43.0576936 62.3035548,44.0661777 62.1138848,45.4230921 L46.2484321,158.56653 C46.1452207,159.352386 46.383921,160.144798 46.903833,160.742261 C47.423745,161.339724 48.1747747,161.684671 48.9659403,161.689385 L79.4979452,161.689385 C80.8657204,161.674056 82.0187246,160.663328 82.2154535,159.307207 C82.2154535,159.307207 85.1327785,127.45809 86.2117892,116.848391 C87.2907998,106.238691 87.65047,99.5125418 93.6449736,93.5070514 C99.6394772,87.5015611 111.628484,89.5033912 115.62482,95.5088815 C121.159745,103.836495 119.061669,118.690074 117.622988,137.547314 C116.084399,157.565615 119.800991,171.278151 133.608331,179.585746 C153.590009,191.596727 173.571688,177.583916 179.825953,169.576596 C180.904964,168.175315 181.624304,166.613887 180.425404,165.332716 L177.508079,162.189843 L175.370039,159.787646 Z" id="路径" fill="#F2F2F2"></path>
                        <circle id="椭圆形" fill="#1A1A1A" cx="124.550296" cy="73.8313609" r="7.70414201"></circle>
                    </g>
                    <g id="编组" transform="translate(0.000000, 276.000000)" fill="#000000">
                        <path d="M16.0271949,17.1959376 C13.8325068,26.6012944 9.88356128,38.2576964 3.73246272,45.5383044 C2.57021588,44.5671095 1.3208165,43.704177 0,42.9603748 C5.97194035,36.1329476 9.64468367,24.9891598 11.3242919,16.2895762 L16.0271949,17.1959376 Z M32.7262331,1.2826087 L32.7262331,52.6851869 C32.7262331,56.0357525 31.7557928,57.3878654 29.6208241,58.1605013 C27.4858555,58.9331373 23.6040942,59 17.52018,59 C17.0765726,57.4040367 16.4920321,55.8502374 15.7733875,54.3567551 C20.625589,54.5499141 25.0896144,54.4904806 26.3885114,54.4904806 C27.6874085,54.4904806 28.1950234,54.0372999 28.1950234,52.6851869 L28.1950234,1.2826087 L32.7262331,1.2826087 Z M47.6112944,15.7100992 C53.3070326,24.6251294 58.7489632,36.2592438 60.4285714,43.8593071 L55.9496162,45.9246224 C54.3969117,38.4508554 49.2311833,26.467569 43.647419,17.3890966 L47.6112944,15.7100992 Z" id="形状"></path>
                        <path d="M117.453233,30.8326953 C114.784492,32.6225531 111.587869,34.5155303 108.36192,36.2611942 C111.03066,41.8812005 116.052877,48.2672365 123.428571,51.3313553 C122.305544,52.3843376 121.359723,53.6131336 120.62786,54.9699963 C113.068874,51.2061389 107.790047,43.9214911 105.055321,37.9184699 C103.852922,38.5592832 102.51122,39.2000965 101.30882,39.7746188 C104.549433,46.5436697 103.508331,53.1212131 99.2706065,55.8686081 C97.2397245,57.2754511 95.3921351,57.6584659 92.7893801,57.7173913 C91.3230393,57.7173913 89.3581426,57.6584659 87.3199289,57.5258839 C87.1532026,56.1655181 86.7460116,54.8459939 86.1175294,53.6294444 C88.0801704,53.8430352 90.0527615,53.951219 92.0268829,53.9535339 C93.7425017,53.9535339 95.2015108,53.8209518 96.6018663,52.8044893 C99.2119529,51.1398479 100.033104,46.9119532 98.0682071,42.1389989 C91.0737614,47.5674978 80.2008443,52.4509371 71.4981115,54.9699963 C70.7868113,53.7925813 69.9321883,52.7088377 68.9540102,51.7438328 C78.4852255,49.5341318 90.1792935,44.4665507 96.6018663,39.0969772 C95.8018541,37.8375233 94.9175683,36.6341465 93.9551211,35.4951645 C88.2950455,39.6494024 79.3357032,43.4795509 72.3412575,45.3946251 C71.6448189,44.2918061 70.812155,43.2820405 69.8631415,42.3894317 C77.2388358,40.6658649 86.4547878,37.0935149 91.7336148,33.2633664 C90.3146312,31.9639738 88.8053734,30.7677118 87.217285,29.6836507 C82.2243946,33.0055679 76.3590313,35.3699481 69.9071317,37.2187313 C69.3249022,36.0783597 68.5978853,35.0186824 67.744279,34.0662244 C74.2255054,32.5341651 80.1421906,30.2950013 84.9737836,27.1645915 L73.5949789,27.1645915 L73.5949789,16.6537802 C72.3192624,17.552392 71.0508776,18.3184217 69.6505221,19.1507424 C68.8552168,18.0471708 67.9156528,17.0561821 66.8571429,16.2044743 C75.3692513,11.6009305 81.8578094,5.21489447 85.2890469,0 L89.7393912,0.920708769 C88.8449234,2.19496971 87.9577872,3.34401425 86.8800267,4.60354384 L101.242835,4.60354384 L101.939347,4.34574539 L104.806043,6.26081963 C103.374575,8.71617569 101.704572,11.0230683 99.8204843,13.1477212 L116.984004,13.1477212 L116.984004,27.1424945 L90.663186,27.1424945 L90.1572984,27.5918004 C94.0101354,30.0039086 97.3048895,33.2159821 99.8204843,37.0124925 C104.806521,34.4757559 109.586792,31.5499755 114.117307,28.2620764 L117.453233,30.8326953 Z M89.226172,23.8058459 C91.4931054,21.720906 93.3854875,19.2591299 94.8202622,16.5285638 L77.5980893,16.5285638 L77.5980893,23.8058459 L89.226172,23.8058459 Z M83.8227061,7.9696551 C82.0629444,9.79979684 80.1948523,11.5215827 78.2286159,13.1256242 L94.8202622,13.1256242 C96.3131031,11.5202749 97.6739266,9.79596948 98.8893579,7.9696551 L83.8227061,7.9696551 Z M112.812264,16.5285638 L98.8820262,16.5285638 C97.6328656,19.1777724 96.0051454,21.6294232 94.0504332,23.8058459 L112.804932,23.8058459 L112.812264,16.5285638 Z" id="形状"></path>
                        <path d="M138.28478,10.0550389 C136.555986,13.3577791 134.510952,16.4889287 132.177761,19.4054912 C131.035593,18.5338936 129.830239,17.7464545 128.571429,17.0495295 C132.622987,12.8513673 136.036388,6.48806891 138.032485,3.55271368e-15 L142.084043,0.990825003 C141.470929,2.82630316 140.762575,4.62930527 139.961798,6.39265613 L156.509372,6.39265613 L156.509372,10.0623784 L146.343374,10.0623784 C147.743457,12.5143179 148.910976,15.0892232 149.830979,17.7541162 L146.039136,19.0898951 C145.002139,15.9698466 143.688565,12.9464819 142.113725,10.0550389 L138.28478,10.0550389 Z M177.338537,53.8935407 C180.492222,53.8935407 181.004232,52.7485874 181.390095,46.8329952 C182.595592,47.6423251 183.953178,48.2038919 185.38229,48.4843702 C184.736712,55.6770257 183.386192,57.7173913 177.531468,57.7173913 L162.445721,57.7173913 C155.62634,57.7173913 153.630242,56.3155574 153.630242,50.9063868 L153.630242,45.3063907 L130.278129,47.3394168 L129.892266,43.6696946 L153.637663,41.5706135 L153.637663,34.4880496 L133.439235,36.3302501 L133.120156,32.7045646 L153.637663,30.928419 L153.637663,24.6898912 C147.530644,25.3210834 141.290057,25.9008995 135.435332,26.2825506 C135.248811,25.0946666 134.901899,23.9369263 134.403892,22.8403512 C149.586105,21.6953979 167.276425,19.7284267 177.249492,17.1816395 L179.891167,20.6164995 C172.663946,22.2176374 165.353869,23.4279942 157.993459,24.2421851 L157.993459,30.5394284 L179.93569,28.5724573 L180.380916,32.0733723 L157.993459,34.1063984 L157.993459,41.166944 L185.983345,38.7522668 L186.428571,42.3779524 L157.993459,44.9247396 L157.993459,50.8403318 C157.993459,53.3210641 158.735503,53.8935407 162.690595,53.8935407 L177.338537,53.8935407 Z M163.313912,10.0550389 C161.718863,13.216892 159.636003,16.1139451 157.140109,18.642189 C156.008058,17.742904 154.804519,16.9353935 153.541197,16.2275117 C157.785687,12.2788906 161.199088,6.29724335 163.002254,0 L167.172539,0.990825003 C166.593745,2.83302557 165.888803,4.66054724 165.176441,6.39265613 L185.701369,6.39265613 L185.701369,10.0623784 L172.708184,10.0623784 C173.891111,11.9333099 174.88528,13.9146962 175.676359,15.9779706 L171.966141,17.3137495 C170.99009,14.7929198 169.78295,12.3656833 168.359809,10.0623784 L163.313912,10.0550389 Z" id="形状"></path>
                        <path d="M215.603855,43.5562748 C215.92053,44.8124516 216.369467,46.0301738 216.942868,47.1882904 C206.392621,54.7818241 204.796105,56.0174582 203.83231,57.2530924 L203.83231,57.3204906 C203.21795,56.1174219 202.420926,55.0205682 201.470644,54.0703983 C203.313369,52.5917701 204.413586,50.3547581 204.472388,47.9671144 L204.472388,24.0706983 L194.142857,24.0706983 L194.142857,19.921963 L208.621857,19.921963 L208.621857,48.3789924 L215.603855,43.5562748 Z M209.158934,14.208091 C206.195392,10.492727 202.929493,7.03819963 199.395909,3.88118481 L202.265223,1.2826087 C205.818983,4.30936723 209.139465,7.60907397 212.197464,11.1527047 L209.158934,14.208091 Z M242.899124,53.5536786 C246.923521,53.5536786 247.556242,51.8612342 247.938817,42.6426544 C249.181948,43.4647237 250.556192,44.0602287 252,44.402497 C251.359922,54.8866657 249.895836,57.7173913 243.06834,57.7173913 L228.015477,57.7173913 C221.129124,57.7173913 218.958745,56.2196529 218.958745,50.3784732 L218.958745,25.3737307 L243.20077,25.3737307 L243.20077,8.45677559 L217.744805,8.45677559 L217.744805,4.14328902 L247.409098,4.14328902 L247.409098,32.8399566 L243.20077,32.8399566 L243.20077,29.4625565 L223.299502,29.4625565 L223.299502,50.3934506 C223.299502,52.9920267 224.12351,53.5761447 228.206765,53.5761447 L242.899124,53.5536786 Z" id="形状"></path>
                    </g>
                </g>
            </g>
        </g>
    </g>
</svg>