<?xml version="1.0" encoding="UTF-8"?>
<svg width="414px" height="122px" viewBox="0 0 414 122" version="1.1" xmlns="http://www.w3.org/2000/svg" xmlns:xlink="http://www.w3.org/1999/xlink">
    <!-- Generator: Sketch 63.1 (92452) - https://sketch.com -->
    <title>logo备份@1x</title>
    <desc>Created with Sketch.</desc>
    <g id="Picks" stroke="none" stroke-width="1" fill="none" fill-rule="evenodd">
        <g transform="translate(-903.000000, -81.000000)" fill-rule="nonzero" id="logo备份">
            <g transform="translate(903.000000, 81.000000)">
                <g id="编组" transform="translate(172.000000, 9.000000)" fill="#333333">
                    <path d="M23.731936,43.0947074 L34.8492389,43.0947074 C39.7487353,43.0947074 44.5971954,38.8034042 45.5425469,33.7139096 C46.4878985,28.6236697 43.2529746,24.2332446 38.3534781,24.2332446 L27.2361752,24.2332446 L23.731936,43.0947074 Z M12.9773842,7.66723404 L41.4305817,7.66723404 C49.0632748,7.66723404 54.8358867,10.0625534 58.939215,14.8517015 C62.9491073,19.6423401 64.2312993,25.9302397 62.7850056,33.7139096 C61.3387119,41.4975795 57.7214074,47.7847337 51.9503659,52.4755053 C46.0670443,57.2653987 39.4040432,59.6614633 31.7721353,59.6614633 L20.6548323,59.6614633 L17.3358946,77.5242553 L0,77.5242553 L12.9773842,7.66723404 Z" id="Fill-1"></path>
                    <path d="M73.2061177,10.0204401 C74.2216915,4.4539488 79.4474366,0 84.9861474,0 C90.5256407,0 94.1247465,4.4539488 93.1083903,10.0204401 C92.5919969,12.8539466 91.2094708,15.2830984 88.8872652,17.205862 C82.0904321,23.5810627 71.034918,18.8247926 73.2061177,10.0204401 L73.2061177,10.0204401 Z M71.7171833,26.9217133 L88.427988,26.9217133 L79.1908047,77.5242553 L62.48,77.5242553 L71.7171833,26.9217133 Z" id="Fill-3"></path>
                    <path d="M128.783146,76.0644273 C123.379077,78.7752201 118.324055,80.08 113.598003,80.08 C106.277257,80.08 100.636112,77.4696903 96.7479313,72.3488041 C92.765538,67.2279179 91.5415524,60.7017687 92.9825348,52.7696067 C94.4042113,44.936428 97.9981727,38.4095289 103.839325,33.2886427 C109.588582,28.1677565 116.178798,25.5574468 123.498,25.5574468 C128.780058,25.5574468 133.379463,26.7624935 137.28,29.2730701 L131.454292,46.0409917 C128.648778,43.6308982 125.162157,42.4266013 120.991339,42.4266013 C115.338611,42.4266013 110.034159,47.1463052 109.012498,52.7696067 C107.991609,58.3921583 111.583254,63.1118622 117.23521,63.1118622 C121.21992,63.1118622 125.163702,61.8055825 129.232585,59.2957559 L128.783146,76.0644273 Z" id="Fill-5"></path>
                    <polygon id="Fill-7" points="188.780467 77.5242553 169.094783 77.5242553 162.780654 62.3275675 155.096558 70.2823694 153.793458 77.5242553 137.28 77.5242553 150.313339 5.11148936 166.827574 5.11148936 161.026599 37.3397097 158.09229 48.4569338 165.472381 39.074015 177.433539 26.5294355 197.12 26.5294355 175.541088 48.966486"></polygon>
                    <path d="M231.857437,49.0048489 C236.215527,51.3136777 239.100339,56.0333166 237.919371,62.4596443 C236.940833,67.7814234 234.215464,71.8981723 229.647129,74.810641 C225.079576,77.7223598 219.737478,79.2280851 213.829515,79.2280851 C207.546394,79.2280851 201.425842,77.8228415 195.36,75.1113361 L200.004929,60.5519923 C205.304041,63.8648879 210.805582,65.5723264 216.339168,65.5723264 C219.433443,65.5723264 221.231077,64.4677779 221.61874,62.3599124 C222.154123,59.4474438 213.857652,57.6402735 207.714434,54.326628 C203.449352,52.0177992 200.472314,47.2981602 201.597008,41.1725278 C202.538812,36.051712 205.245423,32.0354447 209.720749,29.122976 C214.194513,26.2112572 219.347469,24.7055319 225.163987,24.7055319 C232.008282,24.7055319 238.879933,26.6131839 242,28.5215857 L237.427757,42.6782531 C232.429554,39.7672841 227.547806,38.260809 222.67231,38.260809 C219.671043,38.260809 217.985957,39.2648758 217.635028,41.1725278 C217.119185,43.9845148 225.52664,45.6912034 231.857437,49.0048489" id="Fill-9"></path>
                </g>
                <rect id="矩形" fill="#333333" x="5.65" y="0.65" width="135" height="99.37" rx="9.27"></rect>
                <path d="M124.38,7.28 C129.49968,7.28 133.65,11.4303204 133.65,16.55 L133.65,90.89 C133.65,96.0096796 129.49968,100.16 124.38,100.16 L56.692,100.16 L30.75,120.92 C30.1834684,121.405543 29.3890067,121.509396 28.7216084,121.198024 L28.5806688,121.124934 C27.9332337,120.754073 27.5689293,120.040465 27.6384155,119.30729 L27.66,119.15 L32.202,100.16 L9.92,100.16 C4.80032037,100.16 0.65,96.0096796 0.65,90.89 L0.65,16.55 C0.65,11.4303204 4.80032037,7.28 9.92,7.28 L124.38,7.28 Z" id="路径" fill="#EAEAEB"></path>
                <g id="标签-(1)" transform="translate(43.000000, 24.000000)" fill="#333333">
                    <path d="M6.6519244,0.0487277312 C3.01703208,0.0487277312 0.048305675,3.01717274 0.048305675,6.64946205 L0.048305675,22.0667468 C0.048305675,25.6932672 2.15057315,30.7693968 4.72398994,33.3377482 L31.0094388,59.622775 C33.5748355,62.1940109 37.7731091,62.1940109 40.3439932,59.622775 L59.6256594,40.3443449 C62.1936591,37.7734608 62.1936591,33.5720213 59.6256594,31.0040217 L33.3377482,4.71871352 C30.7693968,2.14782941 25.6989657,0.0487277312 22.0667468,0.0487277312 L6.6519244,0.0487277312 L6.6519244,0.0487277312 Z M15.4230975,22.0127162 C11.7853207,22.0127162 8.83390097,19.0612261 8.83390097,15.4235196 C8.83390097,11.7854615 11.7853207,8.83432309 15.4230975,8.83432309 C19.0610854,8.83432309 22.0122941,11.7857429 22.0122941,15.4235196 C22.0122941,19.0611557 19.0610854,22.0127162 15.4230975,22.0127162 L15.4230975,22.0127162 Z" id="形状"></path>
                </g>
            </g>
        </g>
    </g>
</svg>